  0
SECTION
  2
HEADER
  9
$ACADVER
  1
AC1015
  9
$ACADMAINTVER
 70
     6
  9
$DWGCODEPAGE
  3
ANSI_1252
  9
$INSBASE
 10
0.0
 20
0.0
 30
0.0
  9
$EXTMIN
 10
-0.59366245
 20
-1.7726683649
 30
0.0
  9
$EXTMAX
 10
0.6692125051
 20
0.59366245
 30
0.0
  9
$LIMMIN
 10
0.0
 20
0.0
  9
$LIMMAX
 10
12.0
 20
9.0
  9
$ORTHOMODE
 70
     0
  9
$REGENMODE
 70
     1
  9
$FILLMODE
 70
     1
  9
$QTEXTMODE
 70
     0
  9
$MIRRTEXT
 70
     1
  9
$LTSCALE
 40
1.0
  9
$ATTMODE
 70
     1
  9
$TEXTSIZE
 40
0.25
  9
$TRACEWID
 40
0.05
  9
$TEXTSTYLE
  7
Standard
  9
$CLAYER
  8
0
  9
$CELTYPE
  6
ByLayer
  9
$CECOLOR
 62
   256
  9
$CELTSCALE
 40
1.0
  9
$DISPSILH
 70
     0
  9
$DIMSCALE
 40
1.0
  9
$DIMASZ
 40
0.13
  9
$DIMEXO
 40
0.0
  9
$DIMDLI
 40
0.38
  9
$DIMRND
 40
0.0
  9
$DIMDLE
 40
0.0
  9
$DIMEXE
 40
0.125
  9
$DIMTP
 40
0.0
  9
$DIMTM
 40
0.0
  9
$DIMTXT
 40
0.16
  9
$DIMCEN
 40
0.09
  9
$DIMTSZ
 40
0.0
  9
$DIMTOL
 70
     0
  9
$DIMLIM
 70
     0
  9
$DIMTIH
 70
     1
  9
$DIMTOH
 70
     1
  9
$DIMSE1
 70
     0
  9
$DIMSE2
 70
     0
  9
$DIMTAD
 70
     0
  9
$DIMZIN
 70
     1
  9
$DIMBLK
  1

  9
$DIMASO
 70
     1
  9
$DIMSHO
 70
     1
  9
$DIMPOST
  1

  9
$DIMAPOST
  1

  9
$DIMALT
 70
     0
  9
$DIMALTD
 70
     2
  9
$DIMALTF
 40
25.4
  9
$DIMLFAC
 40
1.0
  9
$DIMTOFL
 70
     0
  9
$DIMTVP
 40
0.0
  9
$DIMTIX
 70
     0
  9
$DIMSOXD
 70
     0
  9
$DIMSAH
 70
     0
  9
$DIMBLK1
  1

  9
$DIMBLK2
  1

  9
$DIMSTYLE
  2
Standard
  9
$DIMCLRD
 70
     0
  9
$DIMCLRE
 70
     0
  9
$DIMCLRT
 70
     0
  9
$DIMTFAC
 40
1.0
  9
$DIMGAP
 40
0.06
  9
$DIMJUST
 70
     0
  9
$DIMSD1
 70
     0
  9
$DIMSD2
 70
     0
  9
$DIMTOLJ
 70
     1
  9
$DIMTZIN
 70
     1
  9
$DIMALTZ
 70
     0
  9
$DIMALTTZ
 70
     0
  9
$DIMUPT
 70
     0
  9
$DIMDEC
 70
     3
  9
$DIMTDEC
 70
     3
  9
$DIMALTU
 70
     2
  9
$DIMALTTD
 70
     2
  9
$DIMTXSTY
  7
Standard
  9
$DIMAUNIT
 70
     0
  9
$DIMADEC
 70
     2
  9
$DIMALTRND
 40
0.0
  9
$DIMAZIN
 70
     0
  9
$DIMDSEP
 70
    46
  9
$DIMATFIT
 70
     3
  9
$DIMFRAC
 70
     0
  9
$DIMLDRBLK
  1

  9
$DIMLUNIT
 70
     2
  9
$DIMLWD
 70
    -2
  9
$DIMLWE
 70
    -2
  9
$DIMTMOVE
 70
     0
  9
$LUNITS
 70
     2
  9
$LUPREC
 70
     4
  9
$SKETCHINC
 40
0.1
  9
$FILLETRAD
 40
0.0
  9
$AUNITS
 70
     0
  9
$AUPREC
 70
     2
  9
$MENU
  1
.
  9
$ELEVATION
 40
0.0
  9
$PELEVATION
 40
0.0
  9
$THICKNESS
 40
0.0
  9
$LIMCHECK
 70
     0
  9
$CHAMFERA
 40
0.0
  9
$CHAMFERB
 40
0.0
  9
$CHAMFERC
 40
0.0
  9
$CHAMFERD
 40
0.0
  9
$SKPOLY
 70
     0
  9
$TDCREATE
 40
2460058.690151134
  9
$TDUCREATE
 40
2460058.460984468
  9
$TDUPDATE
 40
2460058.690327095
  9
$TDUUPDATE
 40
2460058.461160428
  9
$TDINDWG
 40
0.0000000116
  9
$TDUSRTIMER
 40
0.0000000116
  9
$USRTIMER
 70
     1
  9
$ANGBASE
 50
0.0
  9
$ANGDIR
 70
     0
  9
$PDMODE
 70
     0
  9
$PDSIZE
 40
-1.0
  9
$PLINEWID
 40
0.0
  9
$SPLFRAME
 70
     0
  9
$SPLINETYPE
 70
     6
  9
$SPLINESEGS
 70
     8
  9
$HANDSEED
  5
128
  9
$SURFTAB1
 70
     6
  9
$SURFTAB2
 70
     6
  9
$SURFTYPE
 70
     6
  9
$SURFU
 70
     6
  9
$SURFV
 70
     6
  9
$UCSBASE
  2

  9
$UCSNAME
  2

  9
$UCSORG
 10
0.0
 20
0.0
 30
0.0
  9
$UCSXDIR
 10
1.0
 20
0.0
 30
0.0
  9
$UCSYDIR
 10
0.0
 20
1.0
 30
0.0
  9
$UCSORTHOREF
  2

  9
$UCSORTHOVIEW
 70
     0
  9
$UCSORGTOP
 10
0.0
 20
0.0
 30
0.0
  9
$UCSORGBOTTOM
 10
0.0
 20
0.0
 30
0.0
  9
$UCSORGLEFT
 10
0.0
 20
0.0
 30
0.0
  9
$UCSORGRIGHT
 10
0.0
 20
0.0
 30
0.0
  9
$UCSORGFRONT
 10
0.0
 20
0.0
 30
0.0
  9
$UCSORGBACK
 10
0.0
 20
0.0
 30
0.0
  9
$PUCSBASE
  2

  9
$PUCSNAME
  2

  9
$PUCSORG
 10
0.0
 20
0.0
 30
0.0
  9
$PUCSXDIR
 10
1.0
 20
0.0
 30
0.0
  9
$PUCSYDIR
 10
0.0
 20
1.0
 30
0.0
  9
$PUCSORTHOREF
  2

  9
$PUCSORTHOVIEW
 70
     0
  9
$PUCSORGTOP
 10
0.0
 20
0.0
 30
0.0
  9
$PUCSORGBOTTOM
 10
0.0
 20
0.0
 30
0.0
  9
$PUCSORGLEFT
 10
0.0
 20
0.0
 30
0.0
  9
$PUCSORGRIGHT
 10
0.0
 20
0.0
 30
0.0
  9
$PUCSORGFRONT
 10
0.0
 20
0.0
 30
0.0
  9
$PUCSORGBACK
 10
0.0
 20
0.0
 30
0.0
  9
$USERI1
 70
     0
  9
$USERI2
 70
     0
  9
$USERI3
 70
     0
  9
$USERI4
 70
     0
  9
$USERI5
 70
     0
  9
$USERR1
 40
0.0
  9
$USERR2
 40
0.0
  9
$USERR3
 40
0.0
  9
$USERR4
 40
0.0
  9
$USERR5
 40
0.0
  9
$WORLDVIEW
 70
     1
  9
$SHADEDGE
 70
     3
  9
$SHADEDIF
 70
    70
  9
$TILEMODE
 70
     1
  9
$MAXACTVP
 70
    64
  9
$PINSBASE
 10
0.0
 20
0.0
 30
0.0
  9
$PLIMCHECK
 70
     0
  9
$PEXTMIN
 10
1.0000000000E+20
 20
1.0000000000E+20
 30
1.0000000000E+20
  9
$PEXTMAX
 10
-1.0000000000E+20
 20
-1.0000000000E+20
 30
-1.0000000000E+20
  9
$PLIMMIN
 10
0.0
 20
0.0
  9
$PLIMMAX
 10
12.0
 20
9.0
  9
$UNITMODE
 70
     0
  9
$VISRETAIN
 70
     1
  9
$PLINEGEN
 70
     0
  9
$PSLTSCALE
 70
     1
  9
$TREEDEPTH
 70
  3020
  9
$CMLSTYLE
  2
Standard
  9
$CMLJUST
 70
     0
  9
$CMLSCALE
 40
1.0
  9
$PROXYGRAPHICS
 70
     1
  9
$MEASUREMENT
 70
     0
  9
$CELWEIGHT
370
    -1
  9
$ENDCAPS
280
     0
  9
$JOINSTYLE
280
     0
  9
$LWDISPLAY
290
     1
  9
$INSUNITS
 70
     1
  9
$HYPERLINKBASE
  1

  9
$STYLESHEET
  1

  9
$XEDIT
290
     1
  9
$CEPSNTYPE
380
     0
  9
$PSTYLEMODE
290
     1
  9
$FINGERPRINTGUID
  2
{ea0652a1-7372-4013-b520-81fb6f6e7621}
  9
$VERSIONGUID
  2
{FAEB1C32-E019-11D5-929B-00C0DF256EC4}
  9
$EXTNAMES
290
     1
  9
$PSVPSCALE
 40
0.0
  9
$OLESTARTUP
290
     0
  0
ENDSEC
  0
SECTION
  2
CLASSES
  0
CLASS
  1
ACDBDICTIONARYWDFLT
  2
AcDbDictionaryWithDefault
  3
ObjectDBX Classes
 90
        0
280
     0
281
     0
  0
CLASS
  1
VISUALSTYLE
  2
AcDbVisualStyle
  3
ObjectDBX Classes
 90
     4095
280
     0
281
     0
  0
CLASS
  1
MATERIAL
  2
AcDbMaterial
  3
ObjectDBX Classes
 90
     1153
280
     0
281
     0
  0
CLASS
  1
SCALE
  2
AcDbScale
  3
ObjectDBX Classes
 90
     1153
280
     0
281
     0
  0
CLASS
  1
TABLESTYLE
  2
AcDbTableStyle
  3
ObjectDBX Classes
 90
     4095
280
     0
281
     0
  0
CLASS
  1
MLEADERSTYLE
  2
AcDbMLeaderStyle
  3
ACDB_MLEADERSTYLE_CLASS
 90
     4095
280
     0
281
     0
  0
CLASS
  1
SUN
  2
AcDbSun
  3
SCENEOE
 90
     1153
280
     0
281
     0
  0
CLASS
  1
ACDBPLACEHOLDER
  2
AcDbPlaceHolder
  3
ObjectDBX Classes
 90
        0
280
     0
281
     0
  0
CLASS
  1
LAYOUT
  2
AcDbLayout
  3
ObjectDBX Classes
 90
        0
280
     0
281
     0
  0
ENDSEC
  0
SECTION
  2
TABLES
  0
TABLE
  2
VPORT
  5
8
330
0
100
AcDbSymbolTable
 70
     1
  0
VPORT
  5
29
330
8
100
AcDbSymbolTableRecord
100
AcDbViewportTableRecord
  2
*Active
 70
     0
 10
0.0
 20
0.0
 11
1.0
 21
1.0
 12
0.0377750276
 22
-0.5895029575
 13
0.0
 23
0.0
 14
0.5
 24
0.5
 15
0.5
 25
0.5
 16
0.0
 26
0.0
 36
1.0
 17
0.0
 27
0.0
 37
0.0
 40
2.4136574312
 41
0.5336848707
 42
50.0
 43
0.0
 44
0.0
 50
0.0
 51
0.0
 71
     0
 72
   100
 73
     1
 74
     3
 75
     0
 76
     0
 77
     0
 78
     0
281
     0
 65
     1
110
0.0
120
0.0
130
0.0
111
1.0
121
0.0
131
0.0
112
0.0
122
1.0
132
0.0
 79
     0
146
0.0
  0
ENDTAB
  0
TABLE
  2
LTYPE
  5
5
330
0
100
AcDbSymbolTable
 70
     6
  0
LTYPE
  5
14
330
5
100
AcDbSymbolTableRecord
100
AcDbLinetypeTableRecord
  2
ByBlock
 70
     0
  3

 72
    65
 73
     0
 40
0.0
  0
LTYPE
  5
15
330
5
100
AcDbSymbolTableRecord
100
AcDbLinetypeTableRecord
  2
ByLayer
 70
     0
  3

 72
    65
 73
     0
 40
0.0
  0
LTYPE
  5
16
330
5
100
AcDbSymbolTableRecord
100
AcDbLinetypeTableRecord
  2
Continuous
 70
     0
  3
Solid line
 72
    65
 73
     0
 40
0.0
  0
LTYPE
  5
5E
330
5
100
AcDbSymbolTableRecord
100
AcDbLinetypeTableRecord
  2
HIDDEN
 70
     0
  3
Hidden __ __ __ __ __ __ __ __ __ __ __ __ __ __
 72
    65
 73
     2
 40
0.075
 49
0.05
 74
     0
 49
-0.025
 74
     0
  0
LTYPE
  5
5F
330
5
100
AcDbSymbolTableRecord
100
AcDbLinetypeTableRecord
  2
PHANTOM
 70
     0
  3
Phantom ______  __  __  ______  __  __  ______
 72
    65
 73
     6
 40
0.5
 49
0.25
 74
     0
 49
-0.05
 74
     0
 49
0.05
 74
     0
 49
-0.05
 74
     0
 49
0.05
 74
     0
 49
-0.05
 74
     0
  0
LTYPE
  5
60
330
5
100
AcDbSymbolTableRecord
100
AcDbLinetypeTableRecord
  2
CENTER
 70
     0
  3
Center ____ _ ____ _ ____ _ ____ _ ____ _ ____
 72
    65
 73
     4
 40
0.4
 49
0.25
 74
     0
 49
-0.05
 74
     0
 49
0.05
 74
     0
 49
-0.05
 74
     0
  0
LTYPE
  5
61
330
5
100
AcDbSymbolTableRecord
100
AcDbLinetypeTableRecord
  2
CENTERX2
 70
     0
  3
Center (2x) ________  __  ________  __  _____
 72
    65
 73
     4
 40
0.8
 49
0.5
 74
     0
 49
-0.1
 74
     0
 49
0.1
 74
     0
 49
-0.1
 74
     0
  0
LTYPE
  5
62
330
5
100
AcDbSymbolTableRecord
100
AcDbLinetypeTableRecord
  2
DOT2
 70
     0
  3
Dot (.5x) ........................................
 72
    65
 73
     2
 40
0.025
 49
0.0
 74
     0
 49
-0.025
 74
     0
  0
ENDTAB
  0
TABLE
  2
LAYER
  5
2
330
0
100
AcDbSymbolTable
 70
     1
  0
LAYER
  5
10
330
2
100
AcDbSymbolTableRecord
100
AcDbLayerTableRecord
  2
0
 70
     0
 62
     7
  6
Continuous
370
    -3
390
F
  0
ENDTAB
  0
TABLE
  2
STYLE
  5
3
330
0
100
AcDbSymbolTable
 70
     1
  0
STYLE
  5
11
330
3
100
AcDbSymbolTableRecord
100
AcDbTextStyleTableRecord
  2
Standard
 70
     0
 40
0.0
 41
1.0
 50
0.0
 71
     0
 42
0.25
  3
txt
  4

  0
ENDTAB
  0
TABLE
  2
VIEW
  5
6
330
0
100
AcDbSymbolTable
 70
     0
  0
ENDTAB
  0
TABLE
  2
UCS
  5
7
330
0
100
AcDbSymbolTable
 70
     0
  0
ENDTAB
  0
TABLE
  2
APPID
  5
9
330
0
100
AcDbSymbolTable
 70
     1
  0
APPID
  5
12
330
9
100
AcDbSymbolTableRecord
100
AcDbRegAppTableRecord
  2
ACAD
 70
     0
  0
ENDTAB
  0
TABLE
  2
DIMSTYLE
  5
A
330
0
100
AcDbSymbolTable
 70
     1
100
AcDbDimStyleTable
  0
DIMSTYLE
105
27
330
A
100
AcDbSymbolTableRecord
100
AcDbDimStyleTableRecord
  2
Standard
 70
     0
178
     0
340
11
  0
ENDTAB
  0
TABLE
  2
BLOCK_RECORD
  5
1
330
0
100
AcDbSymbolTable
 70
     1
  0
BLOCK_RECORD
  5
1F
330
1
100
AcDbSymbolTableRecord
100
AcDbBlockTableRecord
  2
*Model_Space
340
22
  0
BLOCK_RECORD
  5
1B
330
1
100
AcDbSymbolTableRecord
100
AcDbBlockTableRecord
  2
*Paper_Space
340
1E
  0
BLOCK_RECORD
  5
23
330
1
100
AcDbSymbolTableRecord
100
AcDbBlockTableRecord
  2
*Paper_Space0
340
26
  0
ENDTAB
  0
ENDSEC
  0
SECTION
  2
BLOCKS
  0
BLOCK
  5
20
330
1F
100
AcDbEntity
  8
0
100
AcDbBlockBegin
  2
*Model_Space
 70
     0
 10
0.0
 20
0.0
 30
0.0
  3
*Model_Space
  1

  0
ENDBLK
  5
21
330
1F
100
AcDbEntity
  8
0
100
AcDbBlockEnd
  0
BLOCK
  5
1C
330
1B
100
AcDbEntity
 67
     1
  8
0
100
AcDbBlockBegin
  2
*Paper_Space
 70
     0
 10
0.0
 20
0.0
 30
0.0
  3
*Paper_Space
  1

  0
ENDBLK
  5
1D
330
1B
100
AcDbEntity
 67
     1
  8
0
100
AcDbBlockEnd
  0
BLOCK
  5
24
330
23
100
AcDbEntity
  8
0
100
AcDbBlockBegin
  2
*Paper_Space0
 70
     0
 10
0.0
 20
0.0
 30
0.0
  3
*Paper_Space0
  1

  0
ENDBLK
  5
25
330
23
100
AcDbEntity
  8
0
100
AcDbBlockEnd
  0
ENDSEC
  0
SECTION
  2
ENTITIES
  0
POINT
  5
65
330
1F
100
AcDbEntity
  8
0
  6
Continuous
 62
     7
100
AcDbPoint
 10
0.0
 20
0.0
 30
0.0
  0
CIRCLE
  5
66
330
1F
100
AcDbEntity
  8
0
  6
Continuous
 62
     7
370
    25
100
AcDbCircle
 10
0.0
 20
0.0
 30
0.0
 40
0.0787402
  0
SPLINE
  5
6A
330
1F
100
AcDbEntity
  8
0
  6
Continuous
 62
     7
370
    25
100
AcDbSpline
210
0.0
220
0.0
230
1.0
 70
     8
 71
     3
 72
     8
 73
     4
 74
     0
 42
0.00000001
 43
0.00000001
 40
0.0
 40
0.0
 40
0.0
 40
0.0
 40
0.7984982507090066
 40
0.7984982507090066
 40
0.7984982507090066
 40
0.7984982507090066
 10
-0.1388186466525903
 20
-1.544400107558323
 30
0.0
 10
0.1176222303006876
 20
-1.219996987068616
 30
0.0
 10
0.2093007497618077
 20
-0.9029497008621116
 30
0.0
 10
0.1362169117307701
 20
-0.5932582489388092
 30
0.0
  0
SPLINE
  5
6C
330
1F
100
AcDbEntity
  8
0
  6
Continuous
 62
     7
370
    25
100
AcDbSpline
210
0.0
220
0.0
230
1.0
 70
     8
 71
     3
 72
    16
 73
    12
 74
     0
 42
0.00000001
 43
0.00000001
 40
0.0
 40
0.0
 40
0.0
 40
0.0
 40
0.0625000000000003
 40
0.0625000000000003
 40
0.1250000000000006
 40
0.1250000000000006
 40
0.2500000000000012
 40
0.2500000000000012
 40
0.5000000000000008
 40
0.5000000000000008
 40
1.0
 40
1.0
 40
1.0
 40
1.0
 10
0.0594702095223081
 20
-0.4926267432433725
 30
0.0
 10
0.0598143468095392
 20
-0.4950524735999922
 30
0.0
 10
0.0604730928535918
 20
-0.497421936621248
 30
0.0
 10
0.0618843996429663
 20
-0.5021132433621238
 30
0.0
 10
0.0626882882775632
 20
-0.5044288103262758
 30
0.0
 10
0.0653007706764393
 20
-0.511297108267768
 30
0.0
 10
0.0673126034719771
 20
-0.5157708800361623
 30
0.0
 10
0.0738948968450764
 20
-0.5289119204023497
 30
0.0
 10
0.0790085853923183
 20
-0.5372965323439209
 30
0.0
 10
0.0957798583465462
 20
-0.5614444810131554
 30
0.0
 10
0.1088624086277769
 20
-0.5762003642605569
 30
0.0
 10
0.1230147980430174
 20
-0.5897217627248771
 30
0.0
  0
SPLINE
  5
72
330
1F
100
AcDbEntity
  8
0
  6
Continuous
 62
     7
370
    25
100
AcDbSpline
210
0.0
220
0.0
230
1.0
 70
     8
 71
     3
 72
    16
 73
    12
 74
     0
 42
0.00000001
 43
0.00000001
 40
0.0
 40
0.0
 40
0.0
 40
0.0
 40
0.0624999999999998
 40
0.0624999999999998
 40
0.1249999999999996
 40
0.1249999999999996
 40
0.2499999999999992
 40
0.2499999999999992
 40
0.5
 40
0.5
 40
1.0
 40
1.0
 40
1.0
 40
1.0
 10
-0.0594702095223081
 20
-0.4926267432433724
 30
0.0
 10
-0.0598143468095395
 20
-0.495052473599992
 30
0.0
 10
-0.0604730928535919
 20
-0.4974219366212464
 30
0.0
 10
-0.0618843996429665
 20
-0.5021132433621247
 30
0.0
 10
-0.0626882882775632
 20
-0.5044288103262755
 30
0.0
 10
-0.0653007706764392
 20
-0.5112971082677645
 30
0.0
 10
-0.0673126034719774
 20
-0.5157708800361616
 30
0.0
 10
-0.0738948968450757
 20
-0.528911920402348
 30
0.0
 10
-0.0790085853923185
 20
-0.5372965323439246
 30
0.0
 10
-0.0957798583465456
 20
-0.5614444810131524
 30
0.0
 10
-0.1088624086277771
 20
-0.5762003642605569
 30
0.0
 10
-0.1230147980430168
 20
-0.5897217627248768
 30
0.0
  0
SPLINE
  5
76
330
1F
100
AcDbEntity
  8
0
  6
Continuous
 62
     7
370
    25
100
AcDbSpline
210
0.0
220
0.0
230
1.0
 70
     8
 71
     3
 72
    16
 73
    12
 74
     0
 42
0.00000001
 43
0.00000001
 40
0.0
 40
0.0
 40
0.0
 40
0.0
 40
0.0625
 40
0.0625
 40
0.125
 40
0.125
 40
0.25
 40
0.25
 40
0.5
 40
0.5
 40
1.0
 40
1.0
 40
1.0
 40
1.0
 10
-0.1948106594069816
 20
-0.4563623789935098
 30
0.0
 10
-0.1957254929521597
 20
-0.4586351917486891
 30
0.0
 10
-0.1963397336539956
 20
-0.461016579940451
 30
0.0
 10
-0.1974631594923014
 20
-0.4657850241496816
 30
0.0
 10
-0.1979247549950032
 20
-0.4681923082820999
 30
0.0
 10
-0.1990964278413828
 20
-0.4754466699796304
 30
0.0
 10
-0.1995910154164777
 20
-0.4803269863795623
 30
0.0
 10
-0.2004611023233052
 20
-0.494998607855388
 30
0.0
 10
-0.2002248241051378
 20
-0.5048167390712833
 30
0.0
 10
-0.1977744500075906
 20
-0.5341151125452365
 30
0.0
 10
-0.1938225707414576
 20
-0.5534353574333775
 30
0.0
 10
-0.1883269412157698
 20
-0.5722214267057923
 30
0.0
  0
SPLINE
  5
7C
330
1F
100
AcDbEntity
  8
0
  6
Continuous
 62
     7
370
    25
100
AcDbSpline
210
0.0
220
0.0
230
1.0
 70
     8
 71
     3
 72
    16
 73
    12
 74
     0
 42
0.00000001
 43
0.00000001
 40
0.0
 40
0.0
 40
0.0
 40
0.0
 40
0.0624999999999993
 40
0.0624999999999993
 40
0.1249999999999987
 40
0.1249999999999987
 40
0.2499999999999987
 40
0.2499999999999987
 40
0.4999999999999997
 40
0.4999999999999997
 40
1.0
 40
1.0
 40
1.0
 40
1.0
 10
-0.2978160838363859
 20
-0.3968921694712023
 30
0.0
 10
-0.2993269806478275
 20
-0.39882084493915
 30
0.0
 10
-0.3010822029672466
 20
-0.4005434870868582
 30
0.0
 10
-0.3046500838698177
 20
-0.4039006245067167
 30
0.0
 10
-0.3065040553312676
 20
-0.4055040200045371
 30
0.0
 10
-0.312200680426378
 20
-0.4101458993031886
 30
0.0
 10
-0.3161798646196795
 20
-0.4130143829075855
 30
0.0
 10
-0.3284508180790379
 20
-0.4211037110103109
 30
0.0
 10
-0.3370717082387801
 20
-0.4258081536789689
 30
0.0
 10
-0.3636700310055573
 20
-0.4383352541986894
 30
0.0
 10
-0.3823777935190936
 20
-0.4445729488056025
 30
0.0
 10
-0.4013948215091012
 20
-0.4492066286627765
 30
0.0
  0
SPLINE
  5
80
330
1F
100
AcDbEntity
  8
0
  6
Continuous
 62
     7
370
    25
100
AcDbSpline
210
0.0
220
0.0
230
1.0
 70
     8
 71
     3
 72
    16
 73
    12
 74
     0
 42
0.00000001
 43
0.00000001
 40
0.0
 40
0.0
 40
0.0
 40
0.0
 40
0.0624999999999997
 40
0.0624999999999997
 40
0.1249999999999993
 40
0.1249999999999993
 40
0.2499999999999997
 40
0.2499999999999997
 40
0.5000000000000001
 40
0.5000000000000001
 40
1.0
 40
1.0
 40
1.0
 40
1.0
 10
-0.3968921694711993
 20
-0.2978160838363901
 30
0.0
 10
-0.3988208449391478
 20
-0.2993269806478315
 30
0.0
 10
-0.4005434870868564
 20
-0.3010822029672516
 30
0.0
 10
-0.4039006245067128
 20
-0.3046500838698214
 30
0.0
 10
-0.4055040200045344
 20
-0.3065040553312722
 30
0.0
 10
-0.4101458993031881
 20
-0.312200680426384
 30
0.0
 10
-0.4130143829075828
 20
-0.3161798646196839
 30
0.0
 10
-0.4211037110103084
 20
-0.3284508180790441
 30
0.0
 10
-0.4258081536789619
 20
-0.3370717082387821
 30
0.0
 10
-0.4383352541986884
 20
-0.3636700310055646
 30
0.0
 10
-0.4445729488055993
 20
-0.3823777935190983
 30
0.0
 10
-0.4492066286627722
 20
-0.4013948215091065
 30
0.0
  0
SPLINE
  5
86
330
1F
100
AcDbEntity
  8
0
  6
Continuous
 62
     7
370
    25
100
AcDbSpline
210
0.0
220
0.0
230
1.0
 70
     8
 71
     3
 72
    16
 73
    12
 74
     0
 42
0.00000001
 43
0.00000001
 40
0.0
 40
0.0
 40
0.0
 40
0.0
 40
0.0624999999999996
 40
0.0624999999999996
 40
0.1249999999999992
 40
0.1249999999999992
 40
0.2500000000000001
 40
0.2500000000000001
 40
0.5
 40
0.5
 40
1.0
 40
1.0
 40
1.0
 40
1.0
 10
-0.4563623789935078
 20
-0.1948106594069863
 30
0.0
 10
-0.4586351917486872
 20
-0.1957254929521642
 30
0.0
 10
-0.4610165799404476
 20
-0.1963397336539996
 30
0.0
 10
-0.4657850241496803
 20
-0.1974631594923069
 30
0.0
 10
-0.4681923082820977
 20
-0.1979247549950079
 30
0.0
 10
-0.4754466699796249
 20
-0.1990964278413863
 30
0.0
 10
-0.48032698637956
 20
-0.1995910154164821
 30
0.0
 10
-0.4949986078553837
 20
-0.20046110232331
 30
0.0
 10
-0.5048167390712849
 20
-0.200224824105145
 30
0.0
 10
-0.534115112545231
 20
-0.1977744500075948
 30
0.0
 10
-0.553435357433376
 20
-0.1938225707414634
 30
0.0
 10
-0.5722214267057897
 20
-0.1883269412157764
 30
0.0
  0
SPLINE
  5
8A
330
1F
100
AcDbEntity
  8
0
  6
Continuous
 62
     7
370
    25
100
AcDbSpline
210
0.0
220
0.0
230
1.0
 70
     8
 71
     3
 72
    16
 73
    12
 74
     0
 42
0.00000001
 43
0.00000001
 40
0.0
 40
0.0
 40
0.0
 40
0.0
 40
0.0624999999999991
 40
0.0624999999999991
 40
0.1249999999999982
 40
0.1249999999999982
 40
0.249999999999998
 40
0.249999999999998
 40
0.4999999999999991
 40
0.4999999999999991
 40
1.0
 40
1.0
 40
1.0
 40
1.0
 10
-0.4926267432433723
 20
-0.0594702095223098
 30
0.0
 10
-0.4950524735999917
 20
-0.0598143468095409
 30
0.0
 10
-0.4974219366212481
 20
-0.0604730928535936
 30
0.0
 10
-0.5021132433621233
 20
-0.061884399642968
 30
0.0
 10
-0.5044288103262758
 20
-0.062688288277565
 30
0.0
 10
-0.5112971082677675
 20
-0.065300770676441
 30
0.0
 10
-0.5157708800361621
 20
-0.0673126034719789
 30
0.0
 10
-0.528911920402349
 20
-0.073894896845078
 30
0.0
 10
-0.5372965323439195
 20
-0.0790085853923198
 30
0.0
 10
-0.561444481013156
 20
-0.0957798583465479
 30
0.0
 10
-0.5762003642605545
 20
-0.1088624086277785
 30
0.0
 10
-0.5897217627248759
 20
-0.1230147980430187
 30
0.0
  0
SPLINE
  5
90
330
1F
100
AcDbEntity
  8
0
  6
Continuous
 62
     7
370
    25
100
AcDbSpline
210
0.0
220
0.0
230
1.0
 70
     8
 71
     3
 72
    16
 73
    12
 74
     0
 42
0.00000001
 43
0.00000001
 40
0.0
 40
0.0
 40
0.0
 40
0.0
 40
0.0625000000000007
 40
0.0625000000000007
 40
0.1250000000000015
 40
0.1250000000000015
 40
0.2500000000000013
 40
0.2500000000000013
 40
0.500000000000001
 40
0.500000000000001
 40
1.0
 40
1.0
 40
1.0
 40
1.0
 10
-0.4926267432433726
 20
0.0594702095223064
 30
0.0
 10
-0.4950524735999921
 20
0.0598143468095378
 30
0.0
 10
-0.4974219366212463
 20
0.0604730928535901
 30
0.0
 10
-0.5021132433621249
 20
0.0618843996429647
 30
0.0
 10
-0.5044288103262756
 20
0.0626882882775615
 30
0.0
 10
-0.511297108267765
 20
0.0653007706764375
 30
0.0
 10
-0.5157708800361614
 20
0.0673126034719757
 30
0.0
 10
-0.5289119204023492
 20
0.0738948968450739
 30
0.0
 10
-0.5372965323439256
 20
0.0790085853923169
 30
0.0
 10
-0.561444481013152
 20
0.0957798583465437
 30
0.0
 10
-0.5762003642605569
 20
0.1088624086277755
 30
0.0
 10
-0.5897217627248778
 20
0.1230147980430152
 30
0.0
  0
SPLINE
  5
94
330
1F
100
AcDbEntity
  8
0
  6
Continuous
 62
     7
370
    25
100
AcDbSpline
210
0.0
220
0.0
230
1.0
 70
     8
 71
     3
 72
    16
 73
    12
 74
     0
 42
0.00000001
 43
0.00000001
 40
0.0
 40
0.0
 40
0.0
 40
0.0
 40
0.0624999999999999
 40
0.0624999999999999
 40
0.1249999999999998
 40
0.1249999999999998
 40
0.2499999999999996
 40
0.2499999999999996
 40
0.4999999999999991
 40
0.4999999999999991
 40
1.0
 40
1.0
 40
1.0
 40
1.0
 10
-0.4563623789935092
 20
0.1948106594069832
 30
0.0
 10
-0.4586351917486884
 20
0.1957254929521615
 30
0.0
 10
-0.4610165799404504
 20
0.1963397336539973
 30
0.0
 10
-0.4657850241496809
 20
0.1974631594923032
 30
0.0
 10
-0.4681923082820995
 20
0.1979247549950048
 30
0.0
 10
-0.475446669979629
 20
0.1990964278413844
 30
0.0
 10
-0.4803269863795614
 20
0.1995910154164792
 30
0.0
 10
-0.4949986078553867
 20
0.2004611023233068
 30
0.0
 10
-0.5048167390712822
 20
0.2002248241051393
 30
0.0
 10
-0.5341151125452359
 20
0.1977744500075929
 30
0.0
 10
-0.5534353574333777
 20
0.1938225707414597
 30
0.0
 10
-0.5722214267057915
 20
0.188326941215772
 30
0.0
  0
SPLINE
  5
9A
330
1F
100
AcDbEntity
  8
0
  6
Continuous
 62
     7
370
    25
100
AcDbSpline
210
0.0
220
0.0
230
1.0
 70
     8
 71
     3
 72
    16
 73
    12
 74
     0
 42
0.00000001
 43
0.00000001
 40
0.0
 40
0.0
 40
0.0
 40
0.0
 40
0.0624999999999996
 40
0.0624999999999996
 40
0.1249999999999992
 40
0.1249999999999992
 40
0.2499999999999983
 40
0.2499999999999983
 40
0.4999999999999991
 40
0.4999999999999991
 40
1.0
 40
1.0
 40
1.0
 40
1.0
 10
-0.3968921694712012
 20
0.2978160838363872
 30
0.0
 10
-0.398820844939149
 20
0.299326980647829
 30
0.0
 10
-0.4005434870868569
 20
0.301082202967248
 30
0.0
 10
-0.403900624506716
 20
0.3046500838698193
 30
0.0
 10
-0.4055040200045359
 20
0.306504055331269
 30
0.0
 10
-0.410145899303188
 20
0.3122006804263795
 30
0.0
 10
-0.4130143829075839
 20
0.3161798646196812
 30
0.0
 10
-0.4211037110103099
 20
0.3284508180790396
 30
0.0
 10
-0.4258081536789677
 20
0.3370717082387816
 30
0.0
 10
-0.4383352541986882
 20
0.3636700310055588
 30
0.0
 10
-0.4445729488056017
 20
0.3823777935190948
 30
0.0
 10
-0.449206628662775
 20
0.4013948215091027
 30
0.0
  0
SPLINE
  5
9E
330
1F
100
AcDbEntity
  8
0
  6
Continuous
 62
     7
370
    25
100
AcDbSpline
210
0.0
220
0.0
230
1.0
 70
     8
 71
     3
 72
    16
 73
    12
 74
     0
 42
0.00000001
 43
0.00000001
 40
0.0
 40
0.0
 40
0.0
 40
0.0
 40
0.0625000000000004
 40
0.0625000000000004
 40
0.1250000000000009
 40
0.1250000000000009
 40
0.2500000000000006
 40
0.2500000000000006
 40
0.5000000000000007
 40
0.5000000000000007
 40
1.0
 40
1.0
 40
1.0
 40
1.0
 10
-0.2978160838363887
 20
0.3968921694712003
 30
0.0
 10
-0.29932698064783
 20
0.3988208449391483
 30
0.0
 10
-0.3010822029672502
 20
0.4005434870868576
 30
0.0
 10
-0.3046500838698198
 20
0.4039006245067137
 30
0.0
 10
-0.3065040553312708
 20
0.4055040200045352
 30
0.0
 10
-0.3122006804263821
 20
0.4101458993031891
 30
0.0
 10
-0.3161798646196827
 20
0.4130143829075837
 30
0.0
 10
-0.3284508180790423
 20
0.4211037110103094
 30
0.0
 10
-0.3370717082387807
 20
0.4258081536789627
 30
0.0
 10
-0.3636700310055618
 20
0.43833525419869
 30
0.0
 10
-0.3823777935190957
 20
0.4445729488055996
 30
0.0
 10
-0.4013948215091043
 20
0.4492066286627734
 30
0.0
  0
SPLINE
  5
A4
330
1F
100
AcDbEntity
  8
0
  6
Continuous
 62
     7
370
    25
100
AcDbSpline
210
0.0
220
0.0
230
1.0
 70
     8
 71
     3
 72
    16
 73
    12
 74
     0
 42
0.00000001
 43
0.00000001
 40
0.0
 40
0.0
 40
0.0
 40
0.0
 40
0.0625000000000006
 40
0.0625000000000006
 40
0.1250000000000013
 40
0.1250000000000013
 40
0.2500000000000008
 40
0.2500000000000008
 40
0.5
 40
0.5
 40
1.0
 40
1.0
 40
1.0
 40
1.0
 10
-0.1948106594069847
 20
0.4563623789935083
 30
0.0
 10
-0.1957254929521626
 20
0.4586351917486876
 30
0.0
 10
-0.1963397336539979
 20
0.4610165799404479
 30
0.0
 10
-0.1974631594923054
 20
0.4657850241496814
 30
0.0
 10
-0.1979247549950063
 20
0.4681923082820981
 30
0.0
 10
-0.1990964278413846
 20
0.4754466699796261
 30
0.0
 10
-0.1995910154164802
 20
0.4803269863795606
 30
0.0
 10
-0.2004611023233085
 20
0.4949986078553843
 30
0.0
 10
-0.2002248241051429
 20
0.5048167390712854
 30
0.0
 10
-0.1977744500075936
 20
0.5341151125452324
 30
0.0
 10
-0.1938225707414614
 20
0.5534353574333783
 30
0.0
 10
-0.1883269412157743
 20
0.5722214267057909
 30
0.0
  0
SPLINE
  5
A8
330
1F
100
AcDbEntity
  8
0
  6
Continuous
 62
     7
370
    25
100
AcDbSpline
210
0.0
220
0.0
230
1.0
 70
     8
 71
     3
 72
    16
 73
    12
 74
     0
 42
0.00000001
 43
0.00000001
 40
0.0
 40
0.0
 40
0.0
 40
0.0
 40
0.0625000000000003
 40
0.0625000000000003
 40
0.1250000000000006
 40
0.1250000000000006
 40
0.2500000000000012
 40
0.2500000000000012
 40
0.5000000000000008
 40
0.5000000000000008
 40
1.0
 40
1.0
 40
1.0
 40
1.0
 10
-0.0594702095223081
 20
0.4926267432433725
 30
0.0
 10
-0.0598143468095392
 20
0.4950524735999922
 30
0.0
 10
-0.0604730928535918
 20
0.4974219366212481
 30
0.0
 10
-0.0618843996429663
 20
0.5021132433621237
 30
0.0
 10
-0.0626882882775632
 20
0.5044288103262758
 30
0.0
 10
-0.0653007706764393
 20
0.5112971082677679
 30
0.0
 10
-0.0673126034719771
 20
0.5157708800361624
 30
0.0
 10
-0.0738948968450764
 20
0.5289119204023497
 30
0.0
 10
-0.0790085853923183
 20
0.537296532343921
 30
0.0
 10
-0.0957798583465463
 20
0.5614444810131555
 30
0.0
 10
-0.1088624086277769
 20
0.5762003642605569
 30
0.0
 10
-0.1230147980430174
 20
0.5897217627248771
 30
0.0
  0
SPLINE
  5
AE
330
1F
100
AcDbEntity
  8
0
  6
Continuous
 62
     7
370
    25
100
AcDbSpline
210
0.0
220
0.0
230
1.0
 70
     8
 71
     3
 72
    16
 73
    12
 74
     0
 42
0.00000001
 43
0.00000001
 40
0.0
 40
0.0
 40
0.0
 40
0.0
 40
0.0624999999999998
 40
0.0624999999999998
 40
0.1249999999999996
 40
0.1249999999999996
 40
0.2499999999999992
 40
0.2499999999999992
 40
0.5
 40
0.5
 40
1.0
 40
1.0
 40
1.0
 40
1.0
 10
0.0594702095223081
 20
0.4926267432433725
 30
0.0
 10
0.0598143468095395
 20
0.4950524735999921
 30
0.0
 10
0.0604730928535919
 20
0.4974219366212464
 30
0.0
 10
0.0618843996429665
 20
0.5021132433621247
 30
0.0
 10
0.0626882882775633
 20
0.5044288103262755
 30
0.0
 10
0.0653007706764392
 20
0.5112971082677646
 30
0.0
 10
0.0673126034719774
 20
0.5157708800361616
 30
0.0
 10
0.0738948968450757
 20
0.528911920402348
 30
0.0
 10
0.0790085853923185
 20
0.5372965323439246
 30
0.0
 10
0.0957798583465457
 20
0.5614444810131525
 30
0.0
 10
0.1088624086277771
 20
0.576200364260557
 30
0.0
 10
0.1230147980430168
 20
0.5897217627248768
 30
0.0
  0
SPLINE
  5
B2
330
1F
100
AcDbEntity
  8
0
  6
Continuous
 62
     7
370
    25
100
AcDbSpline
210
0.0
220
0.0
230
1.0
 70
     8
 71
     3
 72
    16
 73
    12
 74
     0
 42
0.00000001
 43
0.00000001
 40
0.0
 40
0.0
 40
0.0
 40
0.0
 40
0.0624999999999994
 40
0.0624999999999994
 40
0.1249999999999987
 40
0.1249999999999987
 40
0.2499999999999992
 40
0.2499999999999992
 40
0.5000000000000001
 40
0.5000000000000001
 40
1.0
 40
1.0
 40
1.0
 40
1.0
 10
0.1948106594069784
 20
0.4563623789935112
 30
0.0
 10
0.1957254929521567
 20
0.45863519174869
 30
0.0
 10
0.1963397336539924
 20
0.461016579940452
 30
0.0
 10
0.1974631594922985
 20
0.465785024149683
 30
0.0
 10
0.1979247549950001
 20
0.4681923082821014
 30
0.0
 10
0.1990964278413792
 20
0.4754466699796315
 30
0.0
 10
0.1995910154164742
 20
0.4803269863795638
 30
0.0
 10
0.2004611023233018
 20
0.4949986078553889
 30
0.0
 10
0.2002248241051341
 20
0.5048167390712847
 30
0.0
 10
0.1977744500075871
 20
0.5341151125452379
 30
0.0
 10
0.193822570741454
 20
0.5534353574333796
 30
0.0
 10
0.1883269412157658
 20
0.5722214267057936
 30
0.0
  0
SPLINE
  5
B8
330
1F
100
AcDbEntity
  8
0
  6
Continuous
 62
     7
370
    25
100
AcDbSpline
210
0.0
220
0.0
230
1.0
 70
     8
 71
     3
 72
    16
 73
    12
 74
     0
 42
0.00000001
 43
0.00000001
 40
0.0
 40
0.0
 40
0.0
 40
0.0
 40
0.0625000000000003
 40
0.0625000000000003
 40
0.1250000000000006
 40
0.1250000000000006
 40
0.2500000000000001
 40
0.2500000000000001
 40
0.5
 40
0.5
 40
1.0
 40
1.0
 40
1.0
 40
1.0
 10
0.2978160838363831
 20
0.3968921694712043
 30
0.0
 10
0.2993269806478248
 20
0.3988208449391527
 30
0.0
 10
0.301082202967244
 20
0.4005434870868602
 30
0.0
 10
0.3046500838698147
 20
0.4039006245067188
 30
0.0
 10
0.3065040553312648
 20
0.4055040200045392
 30
0.0
 10
0.3122006804263751
 20
0.4101458993031906
 30
0.0
 10
0.3161798646196766
 20
0.4130143829075876
 30
0.0
 10
0.3284508180790355
 20
0.4211037110103134
 30
0.0
 10
0.3370717082387777
 20
0.4258081536789722
 30
0.0
 10
0.3636700310055541
 20
0.4383352541986906
 30
0.0
 10
0.3823777935190908
 20
0.4445729488056055
 30
0.0
 10
0.4013948215090985
 20
0.4492066286627794
 30
0.0
  0
SPLINE
  5
BC
330
1F
100
AcDbEntity
  8
0
  6
Continuous
 62
     7
370
    25
100
AcDbSpline
210
0.0
220
0.0
230
1.0
 70
     8
 71
     3
 72
    16
 73
    12
 74
     0
 42
0.00000001
 43
0.00000001
 40
0.0
 40
0.0
 40
0.0
 40
0.0
 40
0.0625000000000007
 40
0.0625000000000007
 40
0.1250000000000013
 40
0.1250000000000013
 40
0.2500000000000016
 40
0.2500000000000016
 40
0.500000000000001
 40
0.500000000000001
 40
1.0
 40
1.0
 40
1.0
 40
1.0
 10
0.3968921694711972
 20
0.297816083836393
 30
0.0
 10
0.398820844939145
 20
0.2993269806478341
 30
0.0
 10
0.4005434870868545
 20
0.3010822029672544
 30
0.0
 10
0.4039006245067105
 20
0.304650083869824
 30
0.0
 10
0.4055040200045318
 20
0.3065040553312747
 30
0.0
 10
0.4101458993031866
 20
0.3122006804263869
 30
0.0
 10
0.4130143829075805
 20
0.3161798646196869
 30
0.0
 10
0.4211037110103057
 20
0.3284508180790464
 30
0.0
 10
0.4258081536789592
 20
0.337071708238785
 30
0.0
 10
0.4383352541986864
 20
0.3636700310055673
 30
0.0
 10
0.4445729488055954
 20
0.3823777935191003
 30
0.0
 10
0.4492066286627692
 20
0.4013948215091092
 30
0.0
  0
SPLINE
  5
C2
330
1F
100
AcDbEntity
  8
0
  6
Continuous
 62
     7
370
    25
100
AcDbSpline
210
0.0
220
0.0
230
1.0
 70
     8
 71
     3
 72
    16
 73
    12
 74
     0
 42
0.00000001
 43
0.00000001
 40
0.0
 40
0.0
 40
0.0
 40
0.0
 40
0.0625000000000007
 40
0.0625000000000007
 40
0.1250000000000014
 40
0.1250000000000014
 40
0.250000000000001
 40
0.250000000000001
 40
0.5
 40
0.5
 40
1.0
 40
1.0
 40
1.0
 40
1.0
 10
0.4563623789935063
 20
0.1948106594069894
 30
0.0
 10
0.4586351917486857
 20
0.1957254929521672
 30
0.0
 10
0.461016579940446
 20
0.1963397336540028
 30
0.0
 10
0.4657850241496791
 20
0.1974631594923103
 30
0.0
 10
0.4681923082820961
 20
0.1979247549950111
 30
0.0
 10
0.4754466699796246
 20
0.1990964278413896
 30
0.0
 10
0.4803269863795586
 20
0.1995910154164854
 30
0.0
 10
0.4949986078553829
 20
0.2004611023233137
 30
0.0
 10
0.5048167390712835
 20
0.2002248241051483
 30
0.0
 10
0.5341151125452308
 20
0.1977744500075989
 30
0.0
 10
0.5534353574333762
 20
0.1938225707414671
 30
0.0
 10
0.5722214267057895
 20
0.1883269412157801
 30
0.0
  0
SPLINE
  5
C6
330
1F
100
AcDbEntity
  8
0
  6
Continuous
 62
     7
370
    25
100
AcDbSpline
210
0.0
220
0.0
230
1.0
 70
     8
 71
     3
 72
    16
 73
    12
 74
     0
 42
0.00000001
 43
0.00000001
 40
0.0
 40
0.0
 40
0.0
 40
0.0
 40
0.062499999999999
 40
0.062499999999999
 40
0.1249999999999981
 40
0.1249999999999981
 40
0.2499999999999978
 40
0.2499999999999978
 40
0.4999999999999991
 40
0.4999999999999991
 40
1.0
 40
1.0
 40
1.0
 40
1.0
 10
0.4926267432433719
 20
0.0594702095223132
 30
0.0
 10
0.4950524735999915
 20
0.0598143468095445
 30
0.0
 10
0.4974219366212474
 20
0.0604730928535971
 30
0.0
 10
0.5021132433621233
 20
0.0618843996429715
 30
0.0
 10
0.5044288103262757
 20
0.0626882882775686
 30
0.0
 10
0.5112971082677673
 20
0.0653007706764446
 30
0.0
 10
0.5157708800361621
 20
0.0673126034719826
 30
0.0
 10
0.5289119204023488
 20
0.0738948968450821
 30
0.0
 10
0.5372965323439204
 20
0.079008585392324
 30
0.0
 10
0.5614444810131548
 20
0.0957798583465526
 30
0.0
 10
0.5762003642605554
 20
0.1088624086277834
 30
0.0
 10
0.5897217627248764
 20
0.1230147980430242
 30
0.0
  0
SPLINE
  5
CC
330
1F
100
AcDbEntity
  8
0
  6
Continuous
 62
     7
370
    25
100
AcDbSpline
210
0.0
220
0.0
230
1.0
 70
     8
 71
     3
 72
    16
 73
    12
 74
     0
 42
0.00000001
 43
0.00000001
 40
0.0
 40
0.0
 40
0.0
 40
0.0
 40
0.0625000000000008
 40
0.0625000000000008
 40
0.1250000000000017
 40
0.1250000000000017
 40
0.2500000000000017
 40
0.2500000000000017
 40
0.5000000000000017
 40
0.5000000000000017
 40
1.0
 40
1.0
 40
1.0
 40
1.0
 10
0.492626743243373
 20
-0.0594702095223029
 30
0.0
 10
0.4950524735999924
 20
-0.0598143468095343
 30
0.0
 10
0.4974219366212472
 20
-0.0604730928535867
 30
0.0
 10
0.5021132433621252
 20
-0.0618843996429611
 30
0.0
 10
0.5044288103262764
 20
-0.0626882882775581
 30
0.0
 10
0.5112971082677651
 20
-0.0653007706764338
 30
0.0
 10
0.5157708800361626
 20
-0.0673126034719722
 30
0.0
 10
0.5289119204023494
 20
-0.0738948968450703
 30
0.0
 10
0.537296532343926
 20
-0.0790085853923132
 30
0.0
 10
0.5614444810131545
 20
-0.0957798583465402
 30
0.0
 10
0.5762003642605587
 20
-0.108862408627772
 30
0.0
 10
0.5897217627248789
 20
-0.1230147980430114
 30
0.0
  0
SPLINE
  5
D0
330
1F
100
AcDbEntity
  8
0
  6
Continuous
 62
     7
370
    25
100
AcDbSpline
210
0.0
220
0.0
230
1.0
 70
     8
 71
     3
 72
     8
 73
     4
 74
     0
 42
0.00000001
 43
0.00000001
 40
0.0
 40
0.0
 40
0.0
 40
0.0
 40
0.9426784119193627
 40
0.9426784119193627
 40
0.9426784119193627
 40
0.9426784119193627
 10
-0.0780427116612289
 20
-1.772668364935798
 30
0.0
 10
0.6001468686312692
 20
-1.219464560182456
 30
0.0
 10
0.8169015814202767
 20
-0.6913507522757792
 30
0.0
 10
0.5722214267057936
 20
-0.1883269412157678
 30
0.0
  0
LINE
  5
D2
330
1F
100
AcDbEntity
  8
0
  6
Continuous
 62
     7
370
    25
100
AcDbLine
 10
-0.0932366954
 20
-1.7156013006
 30
0.0
 11
-0.0780427117
 21
-1.7726683649
 31
0.0
  0
LINE
  5
D3
330
1F
100
AcDbEntity
  8
0
  6
Continuous
 62
     7
370
    25
100
AcDbLine
 10
-0.1236246629
 20
-1.6014671719
 30
0.0
 11
-0.1388186467
 21
-1.5444001076
 31
0.0
  0
LINE
  5
D4
330
1F
100
AcDbEntity
  8
0
  6
Continuous
 62
     7
370
    25
100
AcDbLine
 10
0.0528039972
 20
-0.4374065837
 30
0.0
 11
0.0594702095
 21
-0.4926267432
 31
0.0
  0
LINE
  5
D5
330
1F
100
AcDbEntity
  8
0
  6
Continuous
 62
     7
370
    25
100
AcDbLine
 10
-0.0528039972
 20
-0.4374065837
 30
0.0
 11
-0.0594702095
 21
-0.4926267432
 31
0.0
  0
LINE
  5
D6
330
1F
100
AcDbEntity
  8
0
  6
Continuous
 62
     7
370
    25
100
AcDbLine
 10
-0.1729736888
 20
-0.4052072119
 30
0.0
 11
-0.1948106594
 21
-0.456362379
 31
0.0
  0
LINE
  5
D7
330
1F
100
AcDbEntity
  8
0
  6
Continuous
 62
     7
370
    25
100
AcDbLine
 10
-0.2644328948
 20
-0.3524032146
 30
0.0
 11
-0.2978160838
 21
-0.3968921695
 31
0.0
  0
LINE
  5
D8
330
1F
100
AcDbEntity
  8
0
  6
Continuous
 62
     7
370
    25
100
AcDbLine
 10
-0.3524032146
 20
-0.2644328948
 30
0.0
 11
-0.3968921695
 21
-0.2978160838
 31
0.0
  0
LINE
  5
D9
330
1F
100
AcDbEntity
  8
0
  6
Continuous
 62
     7
370
    25
100
AcDbLine
 10
-0.4052072119
 20
-0.1729736888
 30
0.0
 11
-0.456362379
 21
-0.1948106594
 31
0.0
  0
LINE
  5
DA
330
1F
100
AcDbEntity
  8
0
  6
Continuous
 62
     7
370
    25
100
AcDbLine
 10
-0.4374065837
 20
-0.0528039972
 30
0.0
 11
-0.4926267432
 21
-0.0594702095
 31
0.0
  0
LINE
  5
DB
330
1F
100
AcDbEntity
  8
0
  6
Continuous
 62
     7
370
    25
100
AcDbLine
 10
-0.4374065837
 20
0.0528039972
 30
0.0
 11
-0.4926267432
 21
0.0594702095
 31
0.0
  0
LINE
  5
DC
330
1F
100
AcDbEntity
  8
0
  6
Continuous
 62
     7
370
    25
100
AcDbLine
 10
-0.4052072119
 20
0.1729736888
 30
0.0
 11
-0.456362379
 21
0.1948106594
 31
0.0
  0
LINE
  5
DD
330
1F
100
AcDbEntity
  8
0
  6
Continuous
 62
     7
370
    25
100
AcDbLine
 10
-0.3524032146
 20
0.2644328948
 30
0.0
 11
-0.3968921695
 21
0.2978160838
 31
0.0
  0
LINE
  5
DE
330
1F
100
AcDbEntity
  8
0
  6
Continuous
 62
     7
370
    25
100
AcDbLine
 10
-0.2644328948
 20
0.3524032146
 30
0.0
 11
-0.2978160838
 21
0.3968921695
 31
0.0
  0
LINE
  5
DF
330
1F
100
AcDbEntity
  8
0
  6
Continuous
 62
     7
370
    25
100
AcDbLine
 10
-0.1729736888
 20
0.4052072119
 30
0.0
 11
-0.1948106594
 21
0.456362379
 31
0.0
  0
LINE
  5
E0
330
1F
100
AcDbEntity
  8
0
  6
Continuous
 62
     7
370
    25
100
AcDbLine
 10
-0.0528039972
 20
0.4374065837
 30
0.0
 11
-0.0594702095
 21
0.4926267432
 31
0.0
  0
LINE
  5
E1
330
1F
100
AcDbEntity
  8
0
  6
Continuous
 62
     7
370
    25
100
AcDbLine
 10
0.0528039972
 20
0.4374065837
 30
0.0
 11
0.0594702095
 21
0.4926267432
 31
0.0
  0
LINE
  5
E2
330
1F
100
AcDbEntity
  8
0
  6
Continuous
 62
     7
370
    25
100
AcDbLine
 10
0.1729736888
 20
0.4052072119
 30
0.0
 11
0.1948106594
 21
0.456362379
 31
0.0
  0
LINE
  5
E3
330
1F
100
AcDbEntity
  8
0
  6
Continuous
 62
     7
370
    25
100
AcDbLine
 10
0.2644328948
 20
0.3524032146
 30
0.0
 11
0.2978160838
 21
0.3968921695
 31
0.0
  0
LINE
  5
E4
330
1F
100
AcDbEntity
  8
0
  6
Continuous
 62
     7
370
    25
100
AcDbLine
 10
0.3524032146
 20
0.2644328948
 30
0.0
 11
0.3968921695
 21
0.2978160838
 31
0.0
  0
LINE
  5
E5
330
1F
100
AcDbEntity
  8
0
  6
Continuous
 62
     7
370
    25
100
AcDbLine
 10
0.4052072119
 20
0.1729736888
 30
0.0
 11
0.456362379
 21
0.1948106594
 31
0.0
  0
LINE
  5
E6
330
1F
100
AcDbEntity
  8
0
  6
Continuous
 62
     7
370
    25
100
AcDbLine
 10
0.4374065837
 20
0.0528039972
 30
0.0
 11
0.4926267432
 21
0.0594702095
 31
0.0
  0
LINE
  5
E7
330
1F
100
AcDbEntity
  8
0
  6
Continuous
 62
     7
370
    25
100
AcDbLine
 10
0.4374065837
 20
-0.0528039972
 30
0.0
 11
0.4926267432
 21
-0.0594702095
 31
0.0
  0
LINE
  5
E8
330
1F
100
AcDbEntity
  8
0
  6
Continuous
 62
     7
370
    25
100
AcDbLine
 10
0.1360234615
 20
-0.5933026335
 30
0.0
 11
0.1362169117
 21
-0.5932582489
 31
0.0
  0
ARC
  5
E9
330
1F
100
AcDbEntity
  8
0
  6
Continuous
 62
     7
370
    25
100
AcDbCircle
 10
-0.1084306792
 20
-1.6585342362
 30
0.0
 40
0.0590551181102365
100
AcDbArc
 50
284.9090120648
 51
104.9090120648
  0
ARC
  5
EA
330
1F
100
AcDbEntity
  8
0
  6
Continuous
 62
     7
370
    25
100
AcDbCircle
 10
0.1328438718
 20
-0.5794340044
 30
0.0
 40
0.0142284455910337
100
AcDbArc
 50
226.3061766365
 51
282.9127553966
  0
ARC
  5
EB
330
1F
100
AcDbEntity
  8
0
  6
Continuous
 62
     7
370
    25
100
AcDbCircle
 10
0.0245522246
 20
-0.4408171554
 30
0.0
 40
0.0284568911820651
100
AcDbArc
 50
6.8834727252
 51
93.1879133702
  0
ARC
  5
EC
330
1F
100
AcDbEntity
  8
0
  6
Continuous
 62
     7
370
    25
100
AcDbCircle
 10
0.0
 20
0.0
 30
0.0
 40
0.413043478260886
100
AcDbArc
 50
266.8120866298
 51
273.1879133702
  0
ARC
  5
ED
330
1F
100
AcDbEntity
  8
0
  6
Continuous
 62
     7
370
    25
100
AcDbCircle
 10
-0.0245522246
 20
-0.4408171554
 30
0.0
 40
0.0284568911820649
100
AcDbArc
 50
86.8120866298
 51
173.1165272748
  0
ARC
  5
EE
330
1F
100
AcDbEntity
  8
0
  6
Continuous
 62
     7
370
    25
100
AcDbCircle
 10
-0.1328438718
 20
-0.5794340044
 30
0.0
 40
0.014228445591032
100
AcDbArc
 50
257.0872446034
 51
313.6938233635
  0
ARC
  5
EF
330
1F
100
AcDbEntity
  8
0
  6
Continuous
 62
     7
370
    25
100
AcDbCircle
 10
0.0
 20
0.0
 30
0.0
 40
0.6086956521740113
100
AcDbArc
 50
252.9127553966
 51
257.0872446034
  0
ARC
  5
F0
330
1F
100
AcDbEntity
  8
0
  6
Continuous
 62
     7
370
    25
100
AcDbCircle
 10
-0.1746708344
 20
-0.5682265035
 30
0.0
 40
0.0142284455910339
100
AcDbArc
 50
196.3061766365
 51
252.9127553966
  0
ARC
  5
F1
330
1F
100
AcDbEntity
  8
0
  6
Continuous
 62
     7
370
    25
100
AcDbCircle
 10
-0.1991457275
 20
-0.3940349673
 30
0.0
 40
0.028456891182065
100
AcDbArc
 50
336.8834727252
 51
63.1879133702
  0
ARC
  5
F2
330
1F
100
AcDbEntity
  8
0
  6
Continuous
 62
     7
370
    25
100
AcDbCircle
 10
0.0
 20
0.0
 30
0.0
 40
0.4130434782608477
100
AcDbArc
 50
236.8120866298
 51
243.1879133702
  0
ARC
  5
F3
330
1F
100
AcDbEntity
  8
0
  6
Continuous
 62
     7
370
    25
100
AcDbCircle
 10
-0.2416714279
 20
-0.3694827427
 30
0.0
 40
0.0284568911820648
100
AcDbArc
 50
56.8120866298
 51
143.1165272748
  0
ARC
  5
F4
330
1F
100
AcDbEntity
  8
0
  6
Continuous
 62
     7
370
    25
100
AcDbCircle
 10
-0.4047631699
 20
-0.4353826317
 30
0.0
 40
0.014228445591034
100
AcDbArc
 50
227.0872446034
 51
283.6938233635
  0
ARC
  5
F5
330
1F
100
AcDbEntity
  8
0
  6
Continuous
 62
     7
370
    25
100
AcDbCircle
 10
0.0
 20
0.0
 30
0.0
 40
0.6086956521737392
100
AcDbArc
 50
222.9127553966
 51
227.0872446034
  0
ARC
  5
F6
330
1F
100
AcDbEntity
  8
0
  6
Continuous
 62
     7
370
    25
100
AcDbCircle
 10
-0.4353826317
 20
-0.4047631699
 30
0.0
 40
0.0142284455910329
100
AcDbArc
 50
166.3061766365
 51
222.9127553966
  0
ARC
  5
F7
330
1F
100
AcDbEntity
  8
0
  6
Continuous
 62
     7
370
    25
100
AcDbCircle
 10
-0.3694827427
 20
-0.2416714279
 30
0.0
 40
0.028456891182065
100
AcDbArc
 50
306.8834727252
 51
33.1879133702
  0
ARC
  5
F8
330
1F
100
AcDbEntity
  8
0
  6
Continuous
 62
     7
370
    25
100
AcDbCircle
 10
0.0
 20
0.0
 30
0.0
 40
0.4130434782609005
100
AcDbArc
 50
206.8120866298
 51
213.1879133702
  0
ARC
  5
F9
330
1F
100
AcDbEntity
  8
0
  6
Continuous
 62
     7
370
    25
100
AcDbCircle
 10
-0.3940349673
 20
-0.1991457275
 30
0.0
 40
0.0284568911820653
100
AcDbArc
 50
26.8120866298
 51
113.1165272748
  0
ARC
  5
FA
330
1F
100
AcDbEntity
  8
0
  6
Continuous
 62
     7
370
    25
100
AcDbCircle
 10
-0.5682265035
 20
-0.1746708344
 30
0.0
 40
0.0142284455910317
100
AcDbArc
 50
197.0872446034
 51
253.6938233635
  0
ARC
  5
FB
330
1F
100
AcDbEntity
  8
0
  6
Continuous
 62
     7
370
    25
100
AcDbCircle
 10
0.0
 20
0.0
 30
0.0
 40
0.6086956521738455
100
AcDbArc
 50
192.9127553966
 51
197.0872446034
  0
ARC
  5
FC
330
1F
100
AcDbEntity
  8
0
  6
Continuous
 62
     7
370
    25
100
AcDbCircle
 10
-0.5794340044
 20
-0.1328438718
 30
0.0
 40
0.0142284455910359
100
AcDbArc
 50
136.3061766365
 51
192.9127553966
  0
ARC
  5
FD
330
1F
100
AcDbEntity
  8
0
  6
Continuous
 62
     7
370
    25
100
AcDbCircle
 10
-0.4408171554
 20
-0.0245522246
 30
0.0
 40
0.028456891182065
100
AcDbArc
 50
276.8834727252
 51
3.1879133702
  0
ARC
  5
FE
330
1F
100
AcDbEntity
  8
0
  6
Continuous
 62
     7
370
    25
100
AcDbCircle
 10
0.0
 20
0.0
 30
0.0
 40
0.4130434782608917
100
AcDbArc
 50
176.8120866298
 51
183.1879133702
  0
ARC
  5
FF
330
1F
100
AcDbEntity
  8
0
  6
Continuous
 62
     7
370
    25
100
AcDbCircle
 10
-0.4408171554
 20
0.0245522246
 30
0.0
 40
0.028456891182065
100
AcDbArc
 50
356.8120866298
 51
83.1165272748
  0
ARC
  5
100
330
1F
100
AcDbEntity
  8
0
  6
Continuous
 62
     7
370
    25
100
AcDbCircle
 10
-0.5794340044
 20
0.1328438718
 30
0.0
 40
0.0142284455910339
100
AcDbArc
 50
167.0872446034
 51
223.6938233635
  0
ARC
  5
101
330
1F
100
AcDbEntity
  8
0
  6
Continuous
 62
     7
370
    25
100
AcDbCircle
 10
0.0
 20
0.0
 30
0.0
 40
0.6086956521737356
100
AcDbArc
 50
162.9127553966
 51
167.0872446034
  0
ARC
  5
102
330
1F
100
AcDbEntity
  8
0
  6
Continuous
 62
     7
370
    25
100
AcDbCircle
 10
-0.5682265035
 20
0.1746708344
 30
0.0
 40
0.0142284455910341
100
AcDbArc
 50
106.3061766365
 51
162.9127553966
  0
ARC
  5
103
330
1F
100
AcDbEntity
  8
0
  6
Continuous
 62
     7
370
    25
100
AcDbCircle
 10
-0.3940349673
 20
0.1991457275
 30
0.0
 40
0.0284568911820652
100
AcDbArc
 50
246.8834727252
 51
333.1879133702
  0
ARC
  5
104
330
1F
100
AcDbEntity
  8
0
  6
Continuous
 62
     7
370
    25
100
AcDbCircle
 10
0.0
 20
0.0
 30
0.0
 40
0.4130434782608768
100
AcDbArc
 50
146.8120866298
 51
153.1879133702
  0
ARC
  5
105
330
1F
100
AcDbEntity
  8
0
  6
Continuous
 62
     7
370
    25
100
AcDbCircle
 10
-0.3694827427
 20
0.2416714279
 30
0.0
 40
0.028456891182065
100
AcDbArc
 50
326.8120866298
 51
53.1165272748
  0
ARC
  5
106
330
1F
100
AcDbEntity
  8
0
  6
Continuous
 62
     7
370
    25
100
AcDbCircle
 10
-0.4353826317
 20
0.4047631699
 30
0.0
 40
0.0142284455910329
100
AcDbArc
 50
137.0872446034
 51
193.6938233635
  0
ARC
  5
107
330
1F
100
AcDbEntity
  8
0
  6
Continuous
 62
     7
370
    25
100
AcDbCircle
 10
0.0
 20
0.0
 30
0.0
 40
0.6086956521738546
100
AcDbArc
 50
132.9127553966
 51
137.0872446034
  0
ARC
  5
108
330
1F
100
AcDbEntity
  8
0
  6
Continuous
 62
     7
370
    25
100
AcDbCircle
 10
-0.4047631699
 20
0.4353826317
 30
0.0
 40
0.0142284455910337
100
AcDbArc
 50
76.3061766365
 51
132.9127553966
  0
ARC
  5
109
330
1F
100
AcDbEntity
  8
0
  6
Continuous
 62
     7
370
    25
100
AcDbCircle
 10
-0.2416714279
 20
0.3694827427
 30
0.0
 40
0.0284568911820647
100
AcDbArc
 50
216.8834727252
 51
303.1879133702
  0
ARC
  5
10A
330
1F
100
AcDbEntity
  8
0
  6
Continuous
 62
     7
370
    25
100
AcDbCircle
 10
0.0
 20
0.0
 30
0.0
 40
0.4130434782608313
100
AcDbArc
 50
116.8120866298
 51
123.1879133702
  0
ARC
  5
10B
330
1F
100
AcDbEntity
  8
0
  6
Continuous
 62
     7
370
    25
100
AcDbCircle
 10
-0.1991457275
 20
0.3940349673
 30
0.0
 40
0.0284568911820652
100
AcDbArc
 50
296.8120866298
 51
23.1165272748
  0
ARC
  5
10C
330
1F
100
AcDbEntity
  8
0
  6
Continuous
 62
     7
370
    25
100
AcDbCircle
 10
-0.1746708344
 20
0.5682265035
 30
0.0
 40
0.0142284455910318
100
AcDbArc
 50
107.0872446034
 51
163.6938233635
  0
ARC
  5
10D
330
1F
100
AcDbEntity
  8
0
  6
Continuous
 62
     7
370
    25
100
AcDbCircle
 10
0.0
 20
0.0
 30
0.0
 40
0.6086956521739203
100
AcDbArc
 50
102.9127553966
 51
107.0872446034
  0
ARC
  5
10E
330
1F
100
AcDbEntity
  8
0
  6
Continuous
 62
     7
370
    25
100
AcDbCircle
 10
-0.1328438718
 20
0.5794340044
 30
0.0
 40
0.0142284455910343
100
AcDbArc
 50
46.3061766365
 51
102.9127553966
  0
ARC
  5
10F
330
1F
100
AcDbEntity
  8
0
  6
Continuous
 62
     7
370
    25
100
AcDbCircle
 10
-0.0245522246
 20
0.4408171554
 30
0.0
 40
0.0284568911820651
100
AcDbArc
 50
186.8834727252
 51
273.1879133702
  0
ARC
  5
110
330
1F
100
AcDbEntity
  8
0
  6
Continuous
 62
     7
370
    25
100
AcDbCircle
 10
0.0
 20
0.0
 30
0.0
 40
0.4130434782608702
100
AcDbArc
 50
86.8120866298
 51
93.1879133702
  0
ARC
  5
111
330
1F
100
AcDbEntity
  8
0
  6
Continuous
 62
     7
370
    25
100
AcDbCircle
 10
0.0245522246
 20
0.4408171554
 30
0.0
 40
0.0284568911820649
100
AcDbArc
 50
266.8120866298
 51
353.1165272748
  0
ARC
  5
112
330
1F
100
AcDbEntity
  8
0
  6
Continuous
 62
     7
370
    25
100
AcDbCircle
 10
0.1328438718
 20
0.5794340044
 30
0.0
 40
0.0142284455910316
100
AcDbArc
 50
77.0872446034
 51
133.6938233635
  0
ARC
  5
113
330
1F
100
AcDbEntity
  8
0
  6
Continuous
 62
     7
370
    25
100
AcDbCircle
 10
0.0
 20
0.0
 30
0.0
 40
0.6086956521739877
100
AcDbArc
 50
72.9127553966
 51
77.0872446034
  0
ARC
  5
114
330
1F
100
AcDbEntity
  8
0
  6
Continuous
 62
     7
370
    25
100
AcDbCircle
 10
0.1746708344
 20
0.5682265035
 30
0.0
 40
0.0142284455910346
100
AcDbArc
 50
16.3061766365
 51
72.9127553966
  0
ARC
  5
115
330
1F
100
AcDbEntity
  8
0
  6
Continuous
 62
     7
370
    25
100
AcDbCircle
 10
0.1991457275
 20
0.3940349673
 30
0.0
 40
0.0284568911820652
100
AcDbArc
 50
156.8834727252
 51
243.1879133702
  0
ARC
  5
116
330
1F
100
AcDbEntity
  8
0
  6
Continuous
 62
     7
370
    25
100
AcDbCircle
 10
0.0
 20
0.0
 30
0.0
 40
0.413043478260886
100
AcDbArc
 50
56.8120866298
 51
63.1879133702
  0
ARC
  5
117
330
1F
100
AcDbEntity
  8
0
  6
Continuous
 62
     7
370
    25
100
AcDbCircle
 10
0.2416714279
 20
0.3694827427
 30
0.0
 40
0.0284568911820649
100
AcDbArc
 50
236.8120866298
 51
323.1165272748
  0
ARC
  5
118
330
1F
100
AcDbEntity
  8
0
  6
Continuous
 62
     7
370
    25
100
AcDbCircle
 10
0.4047631699
 20
0.4353826317
 30
0.0
 40
0.0142284455910338
100
AcDbArc
 50
47.0872446034
 51
103.6938233635
  0
ARC
  5
119
330
1F
100
AcDbEntity
  8
0
  6
Continuous
 62
     7
370
    25
100
AcDbCircle
 10
0.0
 20
0.0
 30
0.0
 40
0.6086956521738036
100
AcDbArc
 50
42.9127553966
 51
47.0872446034
  0
ARC
  5
11A
330
1F
100
AcDbEntity
  8
0
  6
Continuous
 62
     7
370
    25
100
AcDbCircle
 10
0.4353826317
 20
0.4047631699
 30
0.0
 40
0.0142284455910341
100
AcDbArc
 50
346.3061766365
 51
42.9127553966
  0
ARC
  5
11B
330
1F
100
AcDbEntity
  8
0
  6
Continuous
 62
     7
370
    25
100
AcDbCircle
 10
0.3694827427
 20
0.2416714279
 30
0.0
 40
0.028456891182065
100
AcDbArc
 50
126.8834727252
 51
213.1879133702
  0
ARC
  5
11C
330
1F
100
AcDbEntity
  8
0
  6
Continuous
 62
     7
370
    25
100
AcDbCircle
 10
0.0
 20
0.0
 30
0.0
 40
0.4130434782608689
100
AcDbArc
 50
26.8120866298
 51
33.1879133702
  0
ARC
  5
11D
330
1F
100
AcDbEntity
  8
0
  6
Continuous
 62
     7
370
    25
100
AcDbCircle
 10
0.3940349673
 20
0.1991457275
 30
0.0
 40
0.0284568911820651
100
AcDbArc
 50
206.8120866298
 51
293.1165272748
  0
ARC
  5
11E
330
1F
100
AcDbEntity
  8
0
  6
Continuous
 62
     7
370
    25
100
AcDbCircle
 10
0.5682265035
 20
0.1746708344
 30
0.0
 40
0.0142284455910342
100
AcDbArc
 50
17.0872446034
 51
73.6938233635
  0
ARC
  5
11F
330
1F
100
AcDbEntity
  8
0
  6
Continuous
 62
     7
370
    25
100
AcDbCircle
 10
0.0
 20
0.0
 30
0.0
 40
0.6086956521737351
100
AcDbArc
 50
12.9127553966
 51
17.0872446034
  0
ARC
  5
120
330
1F
100
AcDbEntity
  8
0
  6
Continuous
 62
     7
370
    25
100
AcDbCircle
 10
0.5794340044
 20
0.1328438718
 30
0.0
 40
0.0142284455910291
100
AcDbArc
 50
316.3061766365
 51
12.9127553966
  0
ARC
  5
121
330
1F
100
AcDbEntity
  8
0
  6
Continuous
 62
     7
370
    25
100
AcDbCircle
 10
0.4408171554
 20
0.0245522246
 30
0.0
 40
0.028456891182065
100
AcDbArc
 50
96.8834727252
 51
183.1879133702
  0
ARC
  5
122
330
1F
100
AcDbEntity
  8
0
  6
Continuous
 62
     7
370
    25
100
AcDbCircle
 10
0.0
 20
0.0
 30
0.0
 40
0.4130434782608857
100
AcDbArc
 50
356.8120866298
 51
3.1879133702
  0
ARC
  5
123
330
1F
100
AcDbEntity
  8
0
  6
Continuous
 62
     7
370
    25
100
AcDbCircle
 10
0.4408171554
 20
-0.0245522246
 30
0.0
 40
0.0284568911820652
100
AcDbArc
 50
176.8120866298
 51
263.1165272748
  0
ARC
  5
124
330
1F
100
AcDbEntity
  8
0
  6
Continuous
 62
     7
370
    25
100
AcDbCircle
 10
0.5794340044
 20
-0.1328438718
 30
0.0
 40
0.0142284455910335
100
AcDbArc
 50
347.0872446034
 51
43.6938233635
  0
ARC
  5
125
330
1F
100
AcDbEntity
  8
0
  6
Continuous
 62
     7
370
    25
100
AcDbCircle
 10
0.0
 20
0.0
 30
0.0
 40
0.6086956521737632
100
AcDbArc
 50
342.9127553966
 51
347.0872446034
  0
ARC
  5
126
330
1F
100
AcDbEntity
  8
0
  6
Continuous
 62
     7
370
    25
100
AcDbCircle
 10
0.5682265035
 20
-0.1746708344
 30
0.0
 40
0.0142284455910311
100
AcDbArc
 50
286.3061766365
 51
342.9127553966
  0
ENDSEC
  0
SECTION
  2
OBJECTS
  0
DICTIONARY
  5
C
330
0
100
AcDbDictionary
281
     1
  3
ACAD_GROUP
350
D
  3
ACAD_LAYOUT
350
1A
  3
ACAD_MLINESTYLE
350
17
  3
ACAD_PLOTSETTINGS
350
19
  3
ACAD_PLOTSTYLENAME
350
E
  3
ACAD_SCALELIST
350
47
  3
DWGPROPS
350
127
  0
DICTIONARY
  5
D
102
{ACAD_REACTORS
330
C
102
}
330
C
100
AcDbDictionary
281
     1
  0
DICTIONARY
  5
1A
102
{ACAD_REACTORS
330
C
102
}
330
C
100
AcDbDictionary
281
     1
  3
Layout1
350
1E
  3
Layout2
350
26
  3
Model
350
22
  0
DICTIONARY
  5
17
102
{ACAD_REACTORS
330
C
102
}
330
C
100
AcDbDictionary
281
     1
  3
Standard
350
18
  0
DICTIONARY
  5
19
102
{ACAD_REACTORS
330
C
102
}
330
C
100
AcDbDictionary
281
     1
  0
ACDBDICTIONARYWDFLT
  5
E
102
{ACAD_REACTORS
330
C
102
}
330
C
100
AcDbDictionary
281
     1
  3
Normal
350
F
100
AcDbDictionaryWithDefault
340
F
  0
DICTIONARY
  5
47
102
{ACAD_REACTORS
330
C
102
}
330
C
100
AcDbDictionary
281
     1
  3
A0
350
48
  3
A1
350
49
  3
A2
350
4A
  3
A3
350
4B
  3
A4
350
4C
  3
A5
350
4D
  3
A6
350
4E
  3
A7
350
4F
  3
A8
350
50
  3
A9
350
51
  3
B1
350
52
  3
B2
350
53
  3
B3
350
54
  3
B4
350
55
  3
B5
350
56
  3
B6
350
57
  3
B7
350
58
  0
XRECORD
  5
127
102
{ACAD_REACTORS
330
C
102
}
330
C
100
AcDbXrecord
280
     1
  1
DWGPROPS COOKIE
  2

  3

  4

  6

  7

  8
hp
  9

300
=
301
=
302
=
303
=
304
=
305
=
306
=
307
=
308
=
309
=
 40
0.0
 41
2460058.460984468
 42
2460058.461160428
  1

 90
        0
  0
LAYOUT
  5
1E
102
{ACAD_REACTORS
330
1A
102
}
330
1A
100
AcDbPlotSettings
  1

  2
none_device
  4

  6

 40
0.0
 41
0.0
 42
0.0
 43
0.0
 44
0.0
 45
0.0
 46
0.0
 47
0.0
 48
0.0
 49
0.0
140
0.0
141
0.0
142
1.0
143
1.0
 70
   688
 72
     0
 73
     0
 74
     5
  7

 75
    16
147
1.0
148
0.0
149
0.0
100
AcDbLayout
  1
Layout1
 70
     1
 71
     1
 10
0.0
 20
0.0
 11
12.0
 21
9.0
 12
0.0
 22
0.0
 32
0.0
 14
1.0000000000E+20
 24
1.0000000000E+20
 34
1.0000000000E+20
 15
-1.0000000000E+20
 25
-1.0000000000E+20
 35
-1.0000000000E+20
146
0.0
 13
0.0
 23
0.0
 33
0.0
 16
1.0
 26
0.0
 36
0.0
 17
0.0
 27
1.0
 37
0.0
 76
     0
330
1B
  0
LAYOUT
  5
26
102
{ACAD_REACTORS
330
1A
102
}
330
1A
100
AcDbPlotSettings
  1

  2
none_device
  4

  6

 40
0.0
 41
0.0
 42
0.0
 43
0.0
 44
0.0
 45
0.0
 46
0.0
 47
0.0
 48
0.0
 49
0.0
140
0.0
141
0.0
142
1.0
143
1.0
 70
   688
 72
     0
 73
     0
 74
     5
  7

 75
    16
147
1.0
148
0.0
149
0.0
100
AcDbLayout
  1
Layout2
 70
     1
 71
     2
 10
0.0
 20
0.0
 11
0.0
 21
0.0
 12
0.0
 22
0.0
 32
0.0
 14
0.0
 24
0.0
 34
0.0
 15
0.0
 25
0.0
 35
0.0
146
0.0
 13
0.0
 23
0.0
 33
0.0
 16
1.0
 26
0.0
 36
0.0
 17
0.0
 27
1.0
 37
0.0
 76
     0
330
23
  0
LAYOUT
  5
22
102
{ACAD_REACTORS
330
1A
102
}
330
1A
100
AcDbPlotSettings
  1

  2
none_device
  4
ANSI_A_(11.00_x_8.50_Inches)
  6

 40
6.35
 41
19.05
 42
6.35000508
 43
19.05000254
 44
279.4
 45
215.9
 46
129.937933468
 47
142.147393745
 48
0.0
 49
0.0
140
0.0
141
0.0
142
3.5561384516
143
1.0
 70
  1696
 72
     0
 73
     0
 74
     0
  7

 75
     0
147
0.5913241897
148
-39.4088153714
149
0.0
100
AcDbLayout
  1
Model
 70
     1
 71
     0
 10
0.0
 20
0.0
 11
12.0
 21
9.0
 12
0.0
 22
0.0
 32
0.0
 14
-0.59366245
 24
-1.7726683649
 34
0.0
 15
0.6692125051
 25
0.59366245
 35
0.0
146
0.0
 13
0.0
 23
0.0
 33
0.0
 16
1.0
 26
0.0
 36
0.0
 17
0.0
 27
1.0
 37
0.0
 76
     0
330
1F
331
29
  0
MLINESTYLE
  5
18
102
{ACAD_REACTORS
330
17
102
}
330
17
100
AcDbMlineStyle
  2
Standard
 70
     0
  3

 62
   256
 51
90.0
 52
90.0
 71
     2
 49
0.5
 62
   256
  6
BYLAYER
 49
-0.5
 62
   256
  6
BYLAYER
  0
ACDBPLACEHOLDER
  5
F
102
{ACAD_REACTORS
330
E
102
}
330
E
  0
SCALE
  5
48
102
{ACAD_REACTORS
330
47
102
}
330
47
100
AcDbScale
 70
     0
300
1:1
140
1.0
141
1.0
290
     1
  0
SCALE
  5
49
102
{ACAD_REACTORS
330
47
102
}
330
47
100
AcDbScale
 70
     0
300
1/128" = 1'-0"
140
0.0078125
141
12.0
290
     0
  0
SCALE
  5
4A
102
{ACAD_REACTORS
330
47
102
}
330
47
100
AcDbScale
 70
     0
300
1/64" = 1'-0"
140
0.015625
141
12.0
290
     0
  0
SCALE
  5
4B
102
{ACAD_REACTORS
330
47
102
}
330
47
100
AcDbScale
 70
     0
300
1/32" = 1'-0"
140
0.03125
141
12.0
290
     0
  0
SCALE
  5
4C
102
{ACAD_REACTORS
330
47
102
}
330
47
100
AcDbScale
 70
     0
300
1/16" = 1'-0"
140
0.0625
141
12.0
290
     0
  0
SCALE
  5
4D
102
{ACAD_REACTORS
330
47
102
}
330
47
100
AcDbScale
 70
     0
300
3/32" = 1'-0"
140
0.09375
141
12.0
290
     0
  0
SCALE
  5
4E
102
{ACAD_REACTORS
330
47
102
}
330
47
100
AcDbScale
 70
     0
300
1/8" = 1'-0"
140
0.125
141
12.0
290
     0
  0
SCALE
  5
4F
102
{ACAD_REACTORS
330
47
102
}
330
47
100
AcDbScale
 70
     0
300
3/16" = 1'-0"
140
0.1875
141
12.0
290
     0
  0
SCALE
  5
50
102
{ACAD_REACTORS
330
47
102
}
330
47
100
AcDbScale
 70
     0
300
1/4" = 1'-0"
140
0.25
141
12.0
290
     0
  0
SCALE
  5
51
102
{ACAD_REACTORS
330
47
102
}
330
47
100
AcDbScale
 70
     0
300
3/8" = 1'-0"
140
0.375
141
12.0
290
     0
  0
SCALE
  5
52
102
{ACAD_REACTORS
330
47
102
}
330
47
100
AcDbScale
 70
     0
300
1/2" = 1'-0"
140
0.5
141
12.0
290
     0
  0
SCALE
  5
53
102
{ACAD_REACTORS
330
47
102
}
330
47
100
AcDbScale
 70
     0
300
3/4" = 1'-0"
140
0.75
141
12.0
290
     0
  0
SCALE
  5
54
102
{ACAD_REACTORS
330
47
102
}
330
47
100
AcDbScale
 70
     0
300
1" = 1'-0"
140
1.0
141
12.0
290
     0
  0
SCALE
  5
55
102
{ACAD_REACTORS
330
47
102
}
330
47
100
AcDbScale
 70
     0
300
1-1/2" = 1'-0"
140
1.5
141
12.0
290
     0
  0
SCALE
  5
56
102
{ACAD_REACTORS
330
47
102
}
330
47
100
AcDbScale
 70
     0
300
3" = 1'-0"
140
3.0
141
12.0
290
     0
  0
SCALE
  5
57
102
{ACAD_REACTORS
330
47
102
}
330
47
100
AcDbScale
 70
     0
300
6" = 1'-0"
140
6.0
141
12.0
290
     0
  0
SCALE
  5
58
102
{ACAD_REACTORS
330
47
102
}
330
47
100
AcDbScale
 70
     0
300
1'-0" = 1'-0"
140
12.0
141
12.0
290
     0
  0
ENDSEC
  0
EOF
